<svg xmlns="http://www.w3.org/2000/svg" width="33" height="33" viewBox="0 0 33 33"><g transform="translate(-30 -57)"><g transform="translate(30 57)" fill="#fff" stroke="#707070" stroke-linejoin="round" stroke-width="1"><circle cx="16.5" cy="16.5" r="16.5" stroke="none"/><circle cx="16.5" cy="16.5" r="16" fill="none"/></g><g transform="translate(37 65)" fill="none" stroke-linejoin="round"><path d="M.484,22.5A9.513,9.513,0,0,1,5.506,10.878a6,6,0,1,1,7.34-.272,9.512,9.512,0,0,1,5.67,11.9,17.516,17.516,0,0,1-18.032,0Z" stroke="none"/><path d="M 9.499500274658203 24.00020027160645 C 12.37569713592529 24.00020027160645 15.19399547576904 23.25288581848145 17.67505073547363 21.83564567565918 C 17.8907356262207 21.07915687561035 17.99990081787109 20.29525566101074 17.99990081787109 19.50029945373535 C 17.99990081787109 17.73698043823242 17.46527099609375 16.04612922668457 16.45382118225098 14.61052989959717 C 15.46389007568359 13.20549011230469 14.09437084197998 12.14435005187988 12.49333000183105 11.54184055328369 C 12.16044044494629 11.41656017303467 11.91914081573486 11.1238899230957 11.8596305847168 10.77322006225586 C 11.80013084411621 10.42253971099854 11.93137073516846 10.066650390625 12.20430088043213 9.838580131530762 C 13.34568023681641 8.884770393371582 14.00030040740967 7.485780239105225 14.00030040740967 6.00029993057251 C 14.00030040740967 3.243130207061768 11.75717067718506 1.00000011920929 9 1.00000011920929 C 6.242830276489258 1.00000011920929 3.999700307846069 3.243130207061768 3.999700307846069 6.00029993057251 C 3.999700307846069 7.607340335845947 4.780570507049561 9.127019882202148 6.088510513305664 10.06544971466064 C 6.377400398254395 10.27270984649658 6.534500598907471 10.61777973175049 6.501150608062744 10.97175025939941 C 6.467800617218018 11.3257303237915 6.249010562896729 11.63537979125977 5.92650032043457 11.7850399017334 C 4.475990295410156 12.45814990997314 3.246730327606201 13.52422046661377 2.371610403060913 14.86799049377441 C 1.474300384521484 16.24583053588867 1.000000357627869 17.84766006469727 1.000000357627869 19.50029945373535 C 1.000000357627869 20.29590797424316 1.109133720397949 21.07980537414551 1.324743747711182 21.83558654785156 C 3.805773735046387 23.2528247833252 6.623868942260742 24.00020027160645 9.499500274658203 24.00020027160645 M 9.499500274658203 25.00020027160645 C 6.201900482177734 25.00020027160645 3.117600440979004 24.08760070800781 0.4842004179954529 22.50180053710938 C 0.1701004058122635 21.5585994720459 4.089355343239731e-07 20.54879951477051 4.089355343239731e-07 19.50029945373535 C 4.089355343239731e-07 15.68002033233643 2.254530429840088 12.38661003112793 5.505560398101807 10.87794971466064 C 3.988260507583618 9.78931999206543 2.999700307846069 8.010339736938477 2.999700307846069 6.00029993057251 C 2.999700307846069 2.686500072479248 5.686200618743896 1.358032193365943e-07 9 1.358032193365943e-07 C 12.31380081176758 1.358032193365943e-07 15.00030040740967 2.686500072479248 15.00030040740967 6.00029993057251 C 15.00030040740967 7.850759983062744 14.16241073608398 9.505470275878906 12.84554004669189 10.60591983795166 C 16.44174957275391 11.95925998687744 18.99990081787109 15.43087005615234 18.99990081787109 19.50029945373535 C 18.99990081787109 20.54879951477051 18.82979965209961 21.55769920349121 18.51570129394531 22.50180053710938 C 15.88230037689209 24.08760070800781 12.79800033569336 25.00020027160645 9.499500274658203 25.00020027160645 Z" stroke="none" fill="#707070"/></g></g></svg>